<?xml version="1.0" encoding="utf-8"?>
<!-- Generator: Adobe Illustrator 18.1.0, SVG Export Plug-In . SVG Version: 6.00 Build 0)  -->
<svg version="1.1" id="Layer_1" xmlns="http://www.w3.org/2000/svg" xmlns:xlink="http://www.w3.org/1999/xlink" x="0px" y="0px"
	 width="256px" height="256px" viewBox="-423 468.8 256 256" style="enable-background:new -423 468.8 256 256;"
	 xml:space="preserve">
<style type="text/css">
	.st0{fill:#4E250E;stroke:#4E250E;stroke-width:3.9082;stroke-miterlimit:10;}
</style>
<g>
	<path class="st0" d="M-213,577.8c2.7,10.3,4.2,21.3,4.2,32.8c0,1.3,0,2.6-0.1,4l13.4,5.2l11.1-9.2l8.5,10l-16.7,13.8l-17.4-7
		c-2,15.3-6.6,29.6-13.4,42l2.4-3.2l13,7.4l12.4-7.5l6.9,11.2l-18.5,11.2l-20.4-11.9c-16,24.8-40.7,40.7-68.5,40.7
		c-27.7,0-52.4-15.9-68.4-40.5l-20.1,11.8l-18.5-11.2l6.9-11.2l12.4,7.5l13-7.4l0.9,1.3c-6.1-11.9-10.4-25.4-12.3-39.8l-16.8,6.8
		l-16.7-13.8l8.5-10l11.1,9.2l12.8-5c0-1.4-0.1-2.8-0.1-4.2c0-11.4,1.5-22.5,4.2-32.8l-21.7-0.8l-9.5-19.3l11.9-5.7l6.3,12.9l15,0.7
		l0.3,4.3c9-26.7,26.6-47.9,48.6-58.6c0.4-8.2,7.2-14.7,15.6-14.7h36.5c8.7,0,15.7,6.9,15.7,15.5c0,0.4-0.1,0.7-0.1,1.1
		c20.7,11.4,37.1,32.3,45.4,58.2l0.4-5.8l15-0.7l6.3-12.9l11.9,5.7l-9.5,19.3L-213,577.8z"/>
	<polygon class="st0" points="-251.8,482.9 -253.6,487.5 -256.2,488.7 -261.8,490.2 -266.4,493 -273,496.6 -273,493 -265.6,487.8 
		-260.2,486.1 -255.5,482.9 -252.8,477.5 -247.5,475.7 -248.9,480.7 	"/>
	<polygon class="st0" points="-326.5,490.2 -332.1,488.7 -334.7,487.5 -336.4,482.9 -339.3,480.7 -340.8,475.7 -335.5,477.5 
		-332.8,482.9 -328,486.1 -322.7,487.8 -315.3,493 -315.3,496.6 -321.8,493 	"/>
</g>
</svg>
