<svg xmlns="http://www.w3.org/2000/svg" width="256" height="256" viewBox="-423 468.8 256 256" enable-background="new -423 468.8 256 256"><style type="text/css">.st0{fill:#4E250E;stroke:#4E250E;stroke-width:3.9082;stroke-miterlimit:10;}</style><path class="st0" d="M-213 577.8c2.7 10.3 4.2 21.3 4.2 32.8 0 1.3 0 2.6-.1 4l13.4 5.2 11.1-9.2 8.5 10-16.7 13.8-17.4-7c-2 15.3-6.6 29.6-13.4 42l2.4-3.2 13 7.4 12.4-7.5 6.9 11.2-18.5 11.2-20.4-11.9c-16 24.8-40.7 40.7-68.5 40.7-27.7 0-52.4-15.9-68.4-40.5l-20.1 11.8-18.5-11.2 6.9-11.2 12.4 7.5 13-7.4.9 1.3c-6.1-11.9-10.4-25.4-12.3-39.8l-16.8 6.8-16.7-13.8 8.5-10 11.1 9.2 12.8-5-.1-4.2c0-11.4 1.5-22.5 4.2-32.8l-21.7-.8-9.5-19.3 11.9-5.7 6.3 12.9 15 .7.3 4.3c9-26.7 26.6-47.9 48.6-58.6.4-8.2 7.2-14.7 15.6-14.7h36.5c8.7 0 15.7 6.9 15.7 15.5l-.1 1.1c20.7 11.4 37.1 32.3 45.4 58.2l.4-5.8 15-.7 6.3-12.9 11.9 5.7-9.5 19.3-21.9.6zM-251.8 482.9l-1.8 4.6-2.6 1.2-5.6 1.5-4.6 2.8-6.6 3.6v-3.6l7.4-5.2 5.4-1.7 4.7-3.2 2.7-5.4 5.3-1.8-1.4 5zM-326.5 490.2l-5.6-1.5-2.6-1.2-1.7-4.6-2.9-2.2-1.5-5 5.3 1.8 2.7 5.4 4.8 3.2 5.3 1.7 7.4 5.2v3.6l-6.5-3.6z"/></svg>